<svg id="visual" viewBox="0 0 1920 1080" width="1920" height="1080" xmlns="http://www.w3.org/2000/svg" xmlns:xlink="http://www.w3.org/1999/xlink" version="1.1"><path d="M0 77L175 131L349 66L524 152L698 120L873 66L1047 109L1222 174L1396 163L1571 87L1745 163L1920 163L1920 0L1745 0L1571 0L1396 0L1222 0L1047 0L873 0L698 0L524 0L349 0L175 0L0 0Z" fill="#6e6e6e"></path><path d="M0 260L175 271L349 303L524 336L698 228L873 185L1047 336L1222 336L1396 347L1571 314L1745 282L1920 293L1920 161L1745 161L1571 85L1396 161L1222 172L1047 107L873 64L698 118L524 150L349 64L175 129L0 75Z" fill="#5d5d5d"></path><path d="M0 703L175 465L349 573L524 725L698 411L873 401L1047 638L1222 703L1396 563L1571 552L1745 541L1920 541L1920 291L1745 280L1571 312L1396 345L1222 334L1047 334L873 183L698 226L524 334L349 301L175 269L0 258Z" fill="#4c4c4c"></path><path d="M0 930L175 800L349 822L524 887L698 897L873 865L1047 919L1222 995L1396 930L1571 941L1745 876L1920 962L1920 539L1745 539L1571 550L1396 561L1222 701L1047 636L873 399L698 409L524 723L349 571L175 463L0 701Z" fill="#3c3c3c"></path><path d="M0 1081L175 1081L349 1081L524 1081L698 1081L873 1081L1047 1081L1222 1081L1396 1081L1571 1081L1745 1081L1920 1081L1920 960L1745 874L1571 939L1396 928L1222 993L1047 917L873 863L698 895L524 885L349 820L175 798L0 928Z" fill="#2c2c2c"></path></svg>